<svg width="150" height="38" viewBox="0 0 150 38" fill="none" xmlns="http://www.w3.org/2000/svg">
<g clip-path="url(#clip0_9_1639)">
<path opacity="0.9" fill-rule="evenodd" clip-rule="evenodd" d="M57.1017 13.0014C57.1017 13.913 56.9453 14.7611 56.6324 15.5457C56.3195 16.3303 55.8787 17.0126 55.3104 17.5924C54.7419 18.1723 54.0573 18.6266 53.2563 18.9555C52.4554 19.2844 51.5668 19.4488 50.5907 19.4488C49.6146 19.4488 48.7247 19.2844 47.9209 18.9555C47.117 18.6266 46.4295 18.1723 45.8583 17.5924C45.2869 17.0126 44.8447 16.3303 44.5318 15.5457C44.2189 14.7611 44.0625 13.913 44.0625 13.0014C44.0625 12.0898 44.2189 11.2416 44.5318 10.4569C44.8447 9.67228 45.2869 8.99148 45.8583 8.41452C46.4295 7.83756 47.117 7.38468 47.9209 7.05579C48.7247 6.72694 49.6146 6.5625 50.5907 6.5625C51.5668 6.5625 52.4554 6.72838 53.2563 7.06012C54.0573 7.39187 54.7419 7.84621 55.3104 8.42317C55.8787 9.00013 56.3195 9.68094 56.6324 10.4656C56.9453 11.2503 57.1017 12.0955 57.1017 13.0014ZM54.1219 13.0014C54.1219 12.3782 54.0415 11.8171 53.8805 11.318C53.7198 10.819 53.4887 10.3964 53.1874 10.0502C52.8859 9.70402 52.5171 9.43862 52.0807 9.254C51.6444 9.06935 51.1477 8.97706 50.5907 8.97706C50.0279 8.97706 49.527 9.06935 49.0877 9.254C48.6487 9.43862 48.2783 9.70402 47.9768 10.0502C47.6755 10.3964 47.4444 10.819 47.2835 11.318C47.1229 11.8171 47.0423 12.3782 47.0423 13.0014C47.0423 13.6302 47.1229 14.1942 47.2835 14.6932C47.4444 15.1923 47.6755 15.6149 47.9768 15.9611C48.2783 16.3072 48.6487 16.5712 49.0877 16.753C49.527 16.9348 50.0279 17.0256 50.5907 17.0256C51.1477 17.0256 51.6444 16.9348 52.0807 16.753C52.5171 16.5712 52.8859 16.3072 53.1874 15.9611C53.4887 15.6149 53.7198 15.1923 53.8805 14.6932C54.0415 14.1942 54.1219 13.6302 54.1219 13.0014ZM60.0299 6.70097C60.1562 6.70097 60.2626 6.70673 60.3486 6.71829C60.4345 6.72981 60.5121 6.75145 60.581 6.78318C60.6502 6.81491 60.7161 6.85963 60.7792 6.91732C60.8425 6.97502 60.9142 7.05289 60.9945 7.15098L66.9544 14.7236C66.9314 14.4812 66.9139 14.2461 66.9027 14.0182C66.891 13.7903 66.8855 13.5754 66.8855 13.3734V6.70097H69.4519V19.3103H67.9361C67.7123 19.3103 67.5226 19.2757 67.3678 19.2064C67.2127 19.1372 67.0634 19.0103 66.9198 18.8257L61.0031 11.3137C61.0202 11.533 61.0348 11.7479 61.0461 11.9585C61.0577 12.1691 61.0635 12.3667 61.0635 12.5512V19.3103H58.4968V6.70097H60.0299ZM83.9551 6.70097V9.02034H80.4241V19.3103H77.5132V9.02034H73.982V6.70097H83.9551ZM96.1159 19.3103H93.1877V13.9793H88.0891V19.3103H85.161V6.70097H88.0891V11.9714H93.1877V6.70097H96.1159V19.3103ZM106.261 6.70097V8.95109H101.111V11.8936H105.056V14.0571H101.111V17.0602H106.261V19.3103H98.1829V6.70097H106.261ZM117.294 13.7159C117.409 13.9395 117.519 14.172 117.625 14.4134C117.73 14.6546 117.831 14.9019 117.928 15.1549C118.025 14.8959 118.129 14.6443 118.238 14.4001C118.345 14.1558 118.457 13.9189 118.571 13.6894L121.777 7.19106C121.834 7.07921 121.893 6.99239 121.952 6.9306C122.012 6.86878 122.079 6.82317 122.154 6.79375C122.228 6.7643 122.312 6.74664 122.406 6.74078C122.501 6.73488 122.611 6.73193 122.736 6.73193H124.948V19.5961H122.393V12.1972C122.393 11.8382 122.411 11.4497 122.445 11.0318L119.138 17.6448C119.034 17.8508 118.896 18.0068 118.721 18.1127C118.547 18.2187 118.349 18.2716 118.126 18.2716H117.731C117.509 18.2716 117.311 18.2187 117.136 18.1127C116.962 18.0068 116.823 17.8508 116.72 17.6448L113.395 11.0229C113.418 11.2289 113.435 11.4335 113.447 11.6365C113.458 11.8396 113.464 12.0265 113.464 12.1972V19.5961H110.91V6.73193H113.121C113.247 6.73193 113.357 6.73488 113.451 6.74078C113.545 6.74664 113.629 6.7643 113.704 6.79375C113.778 6.82317 113.845 6.86878 113.905 6.9306C113.965 6.99239 114.024 7.07921 114.081 7.19106L117.294 13.7159ZM138.625 19.5961H136.379C136.129 19.5961 135.921 19.5357 135.758 19.415C135.595 19.2943 135.483 19.1399 135.42 18.9516L134.682 16.7089H129.935L129.198 18.9516C129.141 19.1163 129.029 19.2649 128.864 19.3975C128.698 19.5299 128.495 19.5961 128.255 19.5961H125.993L130.826 6.73193H133.792L138.625 19.5961ZM130.603 14.6782H134.014L132.866 11.1553C132.791 10.9317 132.704 10.6683 132.605 10.3652C132.504 10.062 132.405 9.73386 132.308 9.38068C132.217 9.73976 132.123 10.0723 132.026 10.3784C131.929 10.6845 131.837 10.9493 131.752 11.173L130.603 14.6782ZM142.533 15.2963V19.5961H139.636V6.73193H144.041C144.921 6.73193 145.676 6.83937 146.307 7.0542C146.939 7.26904 147.458 7.56483 147.867 7.94154C148.275 8.31824 148.577 8.76265 148.771 9.27473C148.965 9.78683 149.062 10.3401 149.062 10.9346C149.062 11.5762 148.963 12.1649 148.762 12.7004C148.562 13.2361 148.257 13.6952 147.845 14.0779C147.435 14.4604 146.913 14.7592 146.282 14.974C145.65 15.1888 144.904 15.2963 144.041 15.2963H142.533ZM142.533 13.0448H144.041C144.795 13.0448 145.337 12.8593 145.669 12.4886C146 12.1178 146.166 11.5998 146.166 10.9346C146.166 10.6403 146.123 10.3725 146.037 10.1312C145.951 9.88983 145.822 9.68235 145.648 9.50872C145.473 9.33506 145.253 9.20116 144.988 9.10698C144.722 9.0128 144.407 8.96572 144.041 8.96572H142.533V13.0448Z" fill="white"/>
<path fill-rule="evenodd" clip-rule="evenodd" d="M45.0817 30.8604H44.5852V23.9975H45.0817V30.8604ZM47.5302 23.9975C47.5751 23.9975 47.6104 24.0032 47.6361 24.0145C47.6618 24.0259 47.689 24.0509 47.7181 24.0897L52.1328 30.0359C52.1233 29.9388 52.1186 29.845 52.1186 29.7545V23.9975H52.5523V30.8604H52.3162C52.242 30.8604 52.1827 30.828 52.1378 30.7634L47.7036 24.8075C47.7133 24.9045 47.7181 24.9966 47.7181 25.0839V30.8604H47.2891V23.9975H47.5302ZM59.0299 23.9975V24.4195H56.6347V30.8604H56.1428V24.4195H53.7332V23.9975H59.0299ZM64.2978 23.9975V24.4098H60.7072V27.1841H63.6952V27.5865H60.7072V30.4481H64.2978V30.8604H60.2107V23.9975H64.2978ZM66.5437 27.7564V30.8604H66.0522V23.9975H67.7921C68.5793 23.9975 69.1674 24.1503 69.556 24.4558C69.9448 24.7614 70.1392 25.21 70.1392 25.8017C70.1392 26.0636 70.0945 26.3029 70.0042 26.5196C69.9142 26.7362 69.785 26.9261 69.6163 27.0895C69.4476 27.2527 69.2444 27.3869 69.0067 27.492C68.769 27.597 68.5007 27.6658 68.2018 27.6983C68.2789 27.7466 68.3479 27.8114 68.4088 27.8921L70.7561 30.8604H70.3274C70.276 30.8604 70.2316 30.8506 70.1947 30.8312C70.1577 30.8118 70.1216 30.7794 70.0863 30.7343L67.9028 27.9502C67.8482 27.8793 67.7897 27.8292 67.7269 27.7999C67.6643 27.7711 67.5673 27.7564 67.4354 27.7564H66.5437ZM66.5437 27.3877H67.7295C68.0314 27.3877 68.3023 27.3514 68.5416 27.2786C68.7809 27.2059 68.9835 27.1016 69.1489 26.9657C69.3143 26.8299 69.4404 26.6667 69.5273 26.4759C69.614 26.2851 69.6572 26.0702 69.6572 25.8309C69.6572 25.3426 69.4982 24.9805 69.1803 24.7445C68.8621 24.5084 68.3993 24.3904 67.7921 24.3904H66.5437V27.3877ZM72.2311 23.9975C72.2759 23.9975 72.3113 24.0032 72.3372 24.0145C72.3627 24.0259 72.3902 24.0509 72.419 24.0897L76.8339 30.0359C76.8242 29.9388 76.8194 29.845 76.8194 29.7545V23.9975H77.2532V30.8604H77.0171C76.9431 30.8604 76.8836 30.828 76.8387 30.7634L72.4045 24.8075C72.4142 24.9045 72.419 24.9966 72.419 25.0839V30.8604H71.99V23.9975H72.2311ZM83.3645 23.9975V24.4098H79.7739V27.1841H82.762V27.5865H79.7739V30.4481H83.3645V30.8604H79.2774V23.9975H83.3645ZM89.4276 23.9975V24.4195H87.0324V30.8604H86.5407V24.4195H84.1309V23.9975H89.4276ZM95.7463 28.8621C95.7944 28.9525 95.8363 29.0498 95.8716 29.153C95.8909 29.1012 95.911 29.0505 95.9318 29.0004C95.9527 28.9502 95.9761 28.9026 96.0017 28.8573L98.6817 24.0897C98.7072 24.0477 98.7327 24.0218 98.7586 24.0121C98.7842 24.0024 98.8196 23.9975 98.8647 23.9975H99.2069V30.8604H98.7732V25.0112C98.7732 24.9271 98.7779 24.8382 98.7877 24.7445L96.1031 29.5413C96.0579 29.6252 95.9938 29.6671 95.9102 29.6671H95.8332C95.7527 29.6671 95.6886 29.6252 95.6403 29.5413L92.8833 24.7396C92.8932 24.8334 92.8979 24.9239 92.8979 25.0112V30.8604H92.469V23.9975H92.8063C92.8512 23.9975 92.8873 24.0024 92.9147 24.0121C92.9419 24.0218 92.9686 24.0477 92.9942 24.0897L95.7463 28.8621ZM106.364 30.8604H105.983C105.938 30.8604 105.901 30.8482 105.873 30.824C105.843 30.7999 105.821 30.7682 105.805 30.7295L105 28.7359H101.65L100.85 30.7295C100.838 30.7651 100.815 30.7955 100.783 30.8217C100.751 30.8473 100.712 30.8604 100.667 30.8604H100.291L103.082 23.9975H103.574L106.364 30.8604ZM101.8 28.3674H104.855L103.463 24.8996C103.44 24.8446 103.418 24.7824 103.395 24.7129C103.373 24.6434 103.35 24.5698 103.328 24.4923C103.305 24.5698 103.283 24.6434 103.26 24.7129C103.238 24.7824 103.215 24.8463 103.193 24.9045L101.8 28.3674ZM108.08 27.7564V30.8604H107.588V23.9975H109.328C110.116 23.9975 110.703 24.1503 111.092 24.4558C111.481 24.7614 111.676 25.21 111.676 25.8017C111.676 26.0636 111.63 26.3029 111.54 26.5196C111.45 26.7362 111.321 26.9261 111.152 27.0895C110.984 27.2527 110.781 27.3869 110.543 27.492C110.305 27.597 110.037 27.6658 109.738 27.6983C109.815 27.7466 109.884 27.8114 109.945 27.8921L112.292 30.8604H111.863C111.812 30.8604 111.768 30.8506 111.731 30.8312C111.694 30.8118 111.658 30.7794 111.622 30.7343L109.439 27.9502C109.385 27.8793 109.326 27.8292 109.263 27.7999C109.2 27.7711 109.103 27.7564 108.972 27.7564H108.08ZM108.08 27.3877H109.265C109.568 27.3877 109.838 27.3514 110.078 27.2786C110.317 27.2059 110.519 27.1016 110.685 26.9657C110.851 26.8299 110.977 26.6667 111.063 26.4759C111.15 26.2851 111.194 26.0702 111.194 25.8309C111.194 25.3426 111.034 24.9805 110.716 24.7445C110.398 24.5084 109.935 24.3904 109.328 24.3904H108.08V27.3877ZM114.162 27.1646H114.567C114.628 27.1646 114.681 27.1621 114.726 27.1573C114.771 27.1525 114.812 27.1428 114.849 27.1283C114.886 27.1136 114.921 27.0951 114.953 27.0725C114.985 27.0499 115.019 27.0207 115.054 26.9852L117.806 24.1382C117.858 24.0864 117.905 24.0501 117.948 24.029C117.991 24.008 118.045 23.9975 118.11 23.9975H118.509L115.531 27.0773C115.47 27.142 115.416 27.1921 115.37 27.2277C115.323 27.2633 115.271 27.2923 115.213 27.315C115.281 27.3344 115.341 27.3643 115.394 27.4047C115.447 27.4452 115.501 27.4977 115.555 27.5623L118.698 30.8604H118.297C118.214 30.8604 118.154 30.8482 118.119 30.824C118.084 30.7999 118.047 30.7682 118.009 30.7295L115.122 27.7612C115.086 27.7256 115.054 27.6948 115.025 27.669C114.996 27.6433 114.963 27.6213 114.926 27.6035C114.889 27.5857 114.845 27.5729 114.794 27.5647C114.742 27.5567 114.678 27.5527 114.601 27.5527H114.162V30.8604H113.671V23.9879H114.162V27.1646ZM123.975 23.9975V24.4098H120.384V27.1841H123.373V27.5865H120.384V30.4481H123.975V30.8604H119.889V23.9975H123.975ZM130.038 23.9975V24.4195H127.643V30.8604H127.151V24.4195H124.741V23.9975H130.038ZM131.895 30.8604H131.398V23.9975H131.895V30.8604ZM134.343 23.9975C134.387 23.9975 134.422 24.0032 134.448 24.0145C134.474 24.0259 134.501 24.0509 134.53 24.0897L138.945 30.0359C138.935 29.9388 138.931 29.845 138.931 29.7545V23.9975H139.364V30.8604H139.129C139.055 30.8604 138.995 30.828 138.95 30.7634L134.516 24.8075C134.525 24.9045 134.53 24.9966 134.53 25.0839V30.8604H134.101V23.9975H134.343ZM144.319 30.5354C144.553 30.5354 144.768 30.5232 144.96 30.4991C145.153 30.4748 145.332 30.4385 145.498 30.3898C145.663 30.3413 145.82 30.2824 145.97 30.2128C146.119 30.1435 146.27 30.0649 146.42 29.9775V28.1298H145.11C145.075 28.1298 145.044 28.1185 145.021 28.0958C144.996 28.0732 144.984 28.0474 144.984 28.0182V27.7466H146.869V30.1862C146.699 30.3057 146.522 30.4125 146.339 30.5062C146.155 30.6002 145.959 30.6785 145.751 30.7414C145.542 30.8047 145.317 30.853 145.076 30.887C144.834 30.9209 144.572 30.9379 144.285 30.9379C143.794 30.9379 143.345 30.8548 142.938 30.6881C142.532 30.5216 142.184 30.2855 141.893 29.9802C141.601 29.6745 141.376 29.3052 141.216 28.8719C141.055 28.4386 140.974 27.9569 140.974 27.4265C140.974 26.8962 141.055 26.4153 141.216 25.9836C141.376 25.552 141.604 25.1834 141.9 24.8778C142.195 24.5723 142.554 24.3363 142.977 24.1698C143.4 24.0032 143.872 23.9199 144.396 23.9199C144.656 23.9199 144.897 23.9377 145.117 23.9734C145.337 24.0089 145.542 24.0614 145.731 24.131C145.921 24.2005 146.098 24.2861 146.262 24.388C146.426 24.4898 146.583 24.607 146.734 24.7396L146.604 24.953C146.575 25.0016 146.535 25.0257 146.483 25.0257C146.454 25.0257 146.427 25.0193 146.401 25.0064C146.353 24.9869 146.283 24.9417 146.191 24.8705C146.1 24.7994 145.976 24.7251 145.82 24.6474C145.664 24.5698 145.47 24.5004 145.235 24.4389C145.001 24.3774 144.716 24.3467 144.382 24.3467C143.938 24.3467 143.538 24.4179 143.182 24.5601C142.825 24.7024 142.521 24.9062 142.268 25.1712C142.016 25.4363 141.822 25.7598 141.686 26.1413C141.549 26.5228 141.481 26.9512 141.481 27.4265C141.481 27.9114 141.55 28.3464 141.688 28.7312C141.826 29.1159 142.02 29.4417 142.268 29.7085C142.518 29.9751 142.816 30.1798 143.165 30.3219C143.514 30.4643 143.898 30.5354 144.319 30.5354Z" fill="#D7DBF5"/>
<path d="M17.1516 20.2911C15.3857 18.6391 15.5259 12.5234 15.8052 9.91504C14.1579 10.2801 12.5917 11.1044 11.3103 12.3948C7.7387 15.9916 7.7387 21.8237 11.3103 25.4217C14.8818 29.0197 20.6729 29.0187 24.2456 25.4217C25.4927 24.1658 26.3032 22.6367 26.6794 21.0247C23.7656 21.5126 18.7464 21.7847 17.1516 20.2911Z" fill="white"/>
<path d="M35.4425 15.7091C35.2349 16.3097 34.2715 17.5416 33.9285 17.8857C32.9637 18.8544 32.444 19.1746 31.2184 19.7455C31.0086 22.8702 29.7178 25.824 27.328 28.2127C22.0893 33.4489 13.5941 33.4489 8.35519 28.2127C3.11625 22.9761 3.11625 14.4852 8.35519 9.24895C10.7495 6.85587 13.8244 5.55673 16.9575 5.35161C17.4638 4.25761 18.1352 3.17046 19.0599 2.34086C19.5707 1.88275 20.2684 1.46566 20.8853 1.1181C15.5209 0.356867 9.35168 1.99785 5.22555 6.12197C-1.74185 13.0859 -1.74185 24.3756 5.22555 31.3395C12.1929 38.3036 23.4881 38.3036 30.4556 31.3395C34.5827 27.213 36.2053 21.072 35.4425 15.7091Z" fill="white"/>
<path fill-rule="evenodd" clip-rule="evenodd" d="M32.7766 6.64359C32.413 5.99391 31.9622 5.40985 31.4446 4.92655C30.3878 3.93841 29.0552 3.32833 27.5883 3.19817C25.4331 2.98651 23.253 3.82863 21.7444 5.46304C20.7047 6.58927 20.0581 7.97923 19.8769 9.47896C19.8769 9.47896 19.023 15.573 20.4126 16.8713C21.801 18.1695 27.7832 16.8679 27.7832 16.8679C29.9938 16.423 31.8556 14.9573 32.8933 12.8384C33.8546 10.8734 33.8116 8.49877 32.7766 6.64359ZM28.704 11.6906C27.7006 12.6934 26.0742 12.6934 25.0707 11.6906C24.0673 10.6878 24.0673 9.06242 25.0707 8.0596C26.0742 7.05671 27.7006 7.05671 28.704 8.0596C29.7073 9.06242 29.7073 10.6878 28.704 11.6906Z" fill="white"/>
</g>
<defs>
<clipPath id="clip0_9_1639">
<rect width="150" height="37.5" fill="white"/>
</clipPath>
</defs>
</svg>
