<?xml version="1.0" encoding="UTF-8"?>
<svg width="20px" height="19px" viewBox="0 0 20 19" version="1.1" xmlns="http://www.w3.org/2000/svg" xmlns:xlink="http://www.w3.org/1999/xlink">
    <!-- Generator: Sketch 53.1 (72631) - https://sketchapp.com -->
    <title>otm-icon</title>
    <desc>Created with Sketch.</desc>
    <defs>
        <linearGradient x1="100%" y1="50%" x2="0%" y2="50%" id="linearGradient-1">
            <stop stop-color="#3CAEF3" offset="0%"></stop>
            <stop stop-color="#266CE7" offset="100%"></stop>
        </linearGradient>
        <linearGradient x1="100%" y1="50%" x2="0%" y2="50%" id="linearGradient-2">
            <stop stop-color="#3CAEF3" offset="0%"></stop>
            <stop stop-color="#266CE7" offset="100%"></stop>
        </linearGradient>
        <linearGradient x1="100%" y1="50%" x2="0%" y2="50%" id="linearGradient-3">
            <stop stop-color="#3CAEF3" offset="0%"></stop>
            <stop stop-color="#266CE7" offset="100%"></stop>
        </linearGradient>
        <linearGradient x1="100%" y1="50%" x2="0%" y2="50%" id="linearGradient-4">
            <stop stop-color="#3CAEF3" offset="0%"></stop>
            <stop stop-color="#266CE7" offset="100%"></stop>
        </linearGradient>
    </defs>
    <g id="Page-1" stroke="none" stroke-width="1" fill="none" fill-rule="evenodd">
        <g id="otm-icon">
            <path d="M16.0943065,5.67877283 C17.1228013,5.67877283 17.953931,4.85043531 17.953931,3.83574941 C17.953931,2.82104451 17.1228013,1.992726 16.0943065,1.992726 C15.0658116,1.992726 14.2346819,2.82104451 14.2346819,3.83574941 C14.2346819,4.85043531 15.0658116,5.67877283 16.0943065,5.67877283 Z M18.5876382,6.98336356 C18.2240357,7.28364113 17.8188596,7.55283844 17.3617592,7.66672963 L10.9414054,9.32338565 C10.5777838,9.41656937 10.1830153,9.27161696 9.94405743,8.99204687 C9.7051186,8.71249579 9.63239809,8.29832704 9.78822779,7.96700719 L12.5516834,1.992726 C12.7490676,1.5682225 13.0815233,1.21617621 13.4451259,0.915917637 C15.1281435,-0.481837797 17.6318639,-0.254055431 19.0551082,1.42327009 C20.4784478,3.10061459 20.2706749,5.58557013 18.5876382,6.98336356 Z" id="Shape" fill="url(#linearGradient-1)"></path>
            <path d="M8.85778029,10.1044593 C9.75622471,11.208158 11.9117647,10.4544312 11.9117647,10.4544312 C11.6539499,11.8190176 10.4989017,12.8398437 9.10666382,12.8398437 C7.52879934,12.8398437 6.25,11.516942 6.25,9.87109375 C6.25,8.25651375 7.48754897,6.94400935 9.03447566,6.90234375 C9.03447566,6.90234375 7.80757993,8.81433579 8.85778029,10.1044593 Z" id="Path" fill="url(#linearGradient-2)"></path>
            <path d="M9.08088235,14.3119133 C11.4647165,14.3119133 13.402888,12.3910651 13.5376232,9.9822321 L14.9264706,9.60843753 L14.9264706,9.72264675 C14.9264706,13.0451914 12.3146229,15.734375 9.08088235,15.734375 C5.85752503,15.734375 3.23529412,13.0451914 3.23529412,9.72264675 C3.23529412,6.40010211 5.84714176,3.7109375 9.08088235,3.7109375 C9.54729257,3.7109375 10.0033195,3.76285077 10.4386369,3.87705997 L9.84785574,5.19569516 C9.59911382,5.15416454 9.33998853,5.13339923 9.08088235,5.13339923 C6.61413418,5.13339923 4.61377719,7.18922193 4.61377719,9.72264675 C4.61377719,12.2560906 6.61413418,14.3119133 9.08088235,14.3119133 Z" id="Path" fill="url(#linearGradient-3)"></path>
            <path d="M17.7941176,9.796875 C17.7941176,14.8784156 13.8088074,19 8.89189272,19 C3.97495913,19 0,14.8784156 0,9.796875 C0,4.71533433 3.98531029,0.59375 8.89189272,0.59375 C9.81316493,0.59375 10.7033836,0.739827399 11.5314954,1.01113314 L10.8897045,2.46151132 C10.2582648,2.27369752 9.58542044,2.17979062 8.89189272,2.17979062 C4.82377318,2.17979062 1.5216584,5.59181787 1.5216584,9.80730912 C1.5216584,14.0228003 4.82377318,17.4348467 8.89189272,17.4348467 C12.9599933,17.4348467 16.2621081,14.0228003 16.2621081,9.80730912 C16.2621081,9.62992942 16.2517569,9.46298377 16.2414057,9.28558493 L17.7423618,8.8786551 C17.7837665,9.18124398 17.7941176,9.483852 17.7941176,9.796875 L17.7941176,9.796875 Z" id="Path" fill="url(#linearGradient-4)"></path>
        </g>
    </g>
</svg>