<?xml version="1.0" encoding="UTF-8" standalone="no"?>
<svg
   xmlns:dc="http://purl.org/dc/elements/1.1/"
   xmlns:cc="http://creativecommons.org/ns#"
   xmlns:rdf="http://www.w3.org/1999/02/22-rdf-syntax-ns#"
   xmlns:svg="http://www.w3.org/2000/svg"
   xmlns="http://www.w3.org/2000/svg"
   xmlns:xlink="http://www.w3.org/1999/xlink"
   xmlns:sodipodi="http://sodipodi.sourceforge.net/DTD/sodipodi-0.dtd"
   xmlns:inkscape="http://www.inkscape.org/namespaces/inkscape"
   width="265"
   height="72"
   viewBox="0 0 265 72"
   version="1.1"
   id="svg3807"
   sodipodi:docname="otm-logo-black.svg"
   inkscape:version="0.92.2 (5c3e80d, 2017-08-06)">
  <metadata
     id="metadata3811">
    <rdf:RDF>
      <cc:Work
         rdf:about="">
        <dc:format>image/svg+xml</dc:format>
        <dc:type
           rdf:resource="http://purl.org/dc/dcmitype/StillImage" />
        <dc:title></dc:title>
      </cc:Work>
    </rdf:RDF>
  </metadata>
  <sodipodi:namedview
     pagecolor="#ffffff"
     bordercolor="#666666"
     borderopacity="1"
     objecttolerance="10"
     gridtolerance="10"
     guidetolerance="10"
     inkscape:pageopacity="0"
     inkscape:pageshadow="2"
     inkscape:window-width="1920"
     inkscape:window-height="975"
     id="namedview3809"
     showgrid="false"
     inkscape:zoom="6.6603774"
     inkscape:cx="132.5"
     inkscape:cy="36"
     inkscape:window-x="-6"
     inkscape:window-y="9"
     inkscape:window-maximized="0"
     inkscape:current-layer="svg3807" />
  <defs
     id="defs3785">
    <path
       id="b"
       d="M99.12 54.49a7.01 7.01 0 0 1 7.06-6.96c3.9 0 7.05 3.13 7.05 6.96a7.01 7.01 0 0 1-7.05 6.96 7.01 7.01 0 0 1-7.06-6.96zm18.3-9.11a15.24 15.24 0 0 0-21.3-1.92 12.05 12.05 0 0 0-3.38 4.07L82.25 70.1a3.67 3.67 0 0 0 .6 3.87c.9 1.06 2.4 1.6 3.78 1.25l24.36-6.26a12.12 12.12 0 0 0 4.65-2.58 14.74 14.74 0 0 0 1.77-21z" />
    <path
       id="d"
       d="M78.72 78.07c3.43 4.21 11.67 1.33 11.67 1.33a11 11 0 0 1-10.72 9.11c-6.03 0-10.92-5.05-10.92-11.33 0-6.17 4.73-11.18 10.64-11.34 0 0-4.69 7.3-.67 12.23z" />
    <path
       id="f"
       d="M79.3 94.22c9.05 0 16.4-7.24 16.9-16.33l5.27-1.4v.42c0 12.53-9.9 22.68-22.16 22.68-12.23 0-22.17-10.15-22.17-22.68s9.9-22.67 22.17-22.67c1.77 0 3.5.2 5.15.63l-2.24 4.97c-.95-.16-1.93-.24-2.91-.24-9.36 0-16.94 7.76-16.94 17.31 0 9.56 7.58 17.31 16.94 17.31z" />
    <path
       id="h"
       d="M112.56 76.91c0 19.21-15.13 34.8-33.8 34.8-18.67 0-33.76-15.59-33.76-34.8 0-19.21 15.13-34.8 33.76-34.8 3.5 0 6.88.55 10.02 1.58l-2.44 5.48a26.7 26.7 0 0 0-7.58-1.06C63.3 48.1 50.78 61 50.78 76.95s12.53 28.84 27.98 28.84c15.44 0 27.98-12.9 27.98-28.84 0-.67-.04-1.3-.08-1.97l5.7-1.54c.16 1.14.2 2.29.2 3.47z" />
    <path
       id="i"
       d="M156.72 68.68c0 1.51-.26 2.92-.78 4.22a10.1 10.1 0 0 1-5.62 5.66c-1.34.54-2.82.81-4.45.81-1.62 0-3.1-.27-4.44-.82a10.12 10.12 0 0 1-5.65-5.66c-.52-1.3-.78-2.7-.78-4.21 0-1.51.26-2.92.78-4.22a10.04 10.04 0 0 1 5.65-5.64c1.34-.55 2.82-.82 4.44-.82 1.63 0 3.11.28 4.44.83a10.1 10.1 0 0 1 5.62 5.65c.53 1.3.79 2.7.79 4.2zm-4.96 0c0-1.03-.14-1.97-.4-2.8a5.91 5.91 0 0 0-1.16-2.1 4.98 4.98 0 0 0-1.84-1.32 6.34 6.34 0 0 0-2.49-.46c-.93 0-1.77.16-2.5.46-.73.31-1.35.75-1.85 1.32-.5.58-.89 1.28-1.15 2.1-.27.83-.4 1.77-.4 2.8 0 1.04.13 1.98.4 2.8.26.83.65 1.53 1.15 2.1a4.9 4.9 0 0 0 1.85 1.32c.73.3 1.57.45 2.5.45.93 0 1.76-.15 2.49-.45.72-.3 1.34-.74 1.84-1.31.5-.58.89-1.28 1.15-2.1.27-.83.4-1.77.4-2.81zm9.84-10.45c.2 0 .38 0 .53.03.14.02.27.05.39.1.11.06.22.13.33.23.1.1.22.22.35.39l9.93 12.56a26.49 26.49 0 0 1-.11-2.24V58.23h4.27v20.91h-2.52c-.38 0-.7-.05-.95-.17-.26-.11-.5-.32-.75-.63l-9.85-12.46a44.53 44.53 0 0 1 .1 2.05v11.21h-4.28V58.23zm39.85 0v3.85h-5.88v17.06h-4.85V62.08h-5.88v-3.85zm20.26 20.91h-4.88V70.3h-8.5v8.84h-4.87V58.23h4.88v8.74h8.49v-8.74h4.88zm16.9-20.91v3.73h-8.58v4.88h6.57v3.59h-6.57v4.98h8.58v3.73h-13.46V58.23z" />
    <path
       id="j"
       d="M256.98 69.86a21.47 21.47 0 0 1 1.06 2.39 22.71 22.71 0 0 1 1.07-2.43l5.34-10.78c.1-.18.2-.33.3-.43.1-.1.2-.18.33-.23.12-.05.26-.08.42-.09a9 9 0 0 1 .55-.01h3.68v21.34h-4.25V67.34c0-.6.03-1.24.08-1.93l-5.5 10.97c-.18.34-.4.6-.7.78-.29.17-.62.26-.99.26h-.66c-.37 0-.7-.09-.99-.26a1.85 1.85 0 0 1-.7-.78L250.5 65.4a18.75 18.75 0 0 1 .11 1.94v12.28h-4.25V58.28h3.68l.55.01c.16.01.3.04.42.1.13.04.24.12.34.22.1.1.2.25.3.43z" />
    <path
       id="k"
       d="M292.51 79.62h-3.74c-.42 0-.76-.1-1.03-.3-.27-.2-.46-.46-.57-.77l-1.23-3.72h-7.9l-1.23 3.72a1.64 1.64 0 0 1-1.57 1.07h-3.77l8.05-21.34h4.94zm-13.36-8.16h5.68l-1.91-5.84-.44-1.31c-.16-.5-.33-1.05-.49-1.64a29.68 29.68 0 0 1-.93 2.98z" />
    <path
       id="l"
       d="M299.02 72.48v7.14h-4.82V58.28h7.34c1.46 0 2.72.18 3.77.53a7.2 7.2 0 0 1 2.6 1.48 5.74 5.74 0 0 1 1.5 2.2 8.28 8.28 0 0 1-.01 5.68 5.88 5.88 0 0 1-1.52 2.3 7.15 7.15 0 0 1-2.61 1.48c-1.05.36-2.3.53-3.73.53zm0-3.73h2.52c1.25 0 2.16-.3 2.71-.92.55-.62.83-1.48.83-2.58 0-.49-.07-.93-.22-1.33a2.72 2.72 0 0 0-1.75-1.7 4.75 4.75 0 0 0-1.57-.24h-2.52z" />
    <path
       id="m"
       d="M136.7 98.32h-.83v-11.4h.83zm4.08-11.4c.08 0 .14 0 .18.03.04.02.09.06.14.12l7.36 9.88a4.7 4.7 0 0 1-.02-.47v-9.56h.72v11.4h-.4a.35.35 0 0 1-.3-.16l-7.39-9.9.03.46v9.6h-.72v-11.4zm19.19 0v.7h-4v10.7h-.82v-10.7h-4.02v-.7zm8.78 0v.68h-5.99v4.61h4.99v.67h-4.99v4.75h6v.69h-6.82v-11.4zm3.75 6.24v5.16h-.82v-11.4h2.9c1.32 0 2.3.25 2.95.76.64.5.97 1.25.97 2.24 0 .43-.08.83-.23 1.19a2.8 2.8 0 0 1-.64.94c-.29.28-.62.5-1.02.67-.4.18-.85.3-1.34.35.12.08.24.18.34.32l3.92 4.93h-.72a.47.47 0 0 1-.22-.05.58.58 0 0 1-.18-.16l-3.64-4.63a.8.8 0 0 0-.3-.25c-.1-.04-.26-.07-.48-.07zm0-.61h1.98c.5 0 .95-.06 1.35-.18.4-.12.74-.3 1.02-.52.27-.23.48-.5.63-.81.14-.32.21-.68.21-1.08 0-.8-.26-1.4-.8-1.8-.52-.4-1.3-.59-2.3-.59h-2.09zm9.49-5.63c.07 0 .13 0 .17.03.05.02.1.06.14.12l7.37 9.88a4.7 4.7 0 0 1-.03-.47v-9.56h.73v11.4h-.4a.35.35 0 0 1-.3-.16l-7.4-9.9.03.46v9.6h-.71v-11.4zm18.57 0v.68h-5.99v4.61h4.98v.67h-4.98v4.75h5.99v.69h-6.82v-11.4zm10.11 0v.7h-4v10.7h-.81v-10.7h-4.02v-.7zM221.21 95c.09.15.15.31.21.48a7.13 7.13 0 0 1 .22-.49l4.47-7.92c.04-.07.09-.11.13-.13l.18-.02h.57v11.4h-.73V88.6l.03-.44-4.48 7.97c-.08.14-.18.2-.32.2h-.13c-.13 0-.24-.06-.32-.2l-4.6-7.98.02.45v9.72h-.71v-11.4h.56c.08 0 .14 0 .18.02.05.02.1.06.13.13zm17.72 3.32h-.64a.28.28 0 0 1-.18-.06.4.4 0 0 1-.12-.16l-1.34-3.31h-5.59l-1.33 3.31a.35.35 0 0 1-.11.15.3.3 0 0 1-.2.07h-.62l4.65-11.4h.82zm-7.62-4.14h5.1l-2.32-5.76a4.4 4.4 0 0 1-.23-.68 12.43 12.43 0 0 1-.22.69zm10.48-1.02v5.16h-.82v-11.4h2.9c1.31 0 2.3.25 2.94.76.65.5.98 1.25.98 2.24 0 .43-.08.83-.23 1.19a2.8 2.8 0 0 1-.65.94c-.28.28-.62.5-1.01.67-.4.18-.85.3-1.35.35.13.08.25.18.35.32l3.92 4.93h-.72a.47.47 0 0 1-.22-.05.58.58 0 0 1-.18-.16l-3.64-4.63a.8.8 0 0 0-.3-.25c-.1-.04-.26-.07-.48-.07zm0-.61h1.98c.5 0 .95-.06 1.35-.18.4-.12.74-.3 1.01-.52.28-.23.5-.5.64-.81.14-.32.21-.68.21-1.08 0-.8-.26-1.4-.8-1.8-.52-.4-1.3-.59-2.3-.59h-2.1zm10.15-.37h.67l.27-.01a.8.8 0 0 0 .37-.14l.17-.15 4.6-4.73a.91.91 0 0 1 .23-.18.62.62 0 0 1 .27-.05h.67l-4.97 5.11c-.1.11-.2.2-.27.25-.08.06-.17.11-.26.15a.9.9 0 0 1 .3.15c.09.07.18.15.27.26l5.24 5.48h-.67c-.14 0-.23-.02-.3-.06l-.18-.16-4.81-4.93a3.83 3.83 0 0 0-.17-.15.7.7 0 0 0-.38-.18l-.32-.02h-.73v5.5h-.82V86.9h.82zm16.36-5.26v.68h-5.98v4.61h4.98v.67h-4.98v4.75h5.98v.69h-6.81v-11.4zm10.12 0v.7h-4v10.7h-.82v-10.7h-4.02v-.7zm3.1 11.4h-.83v-11.4h.82zm4.08-11.4c.07 0 .13 0 .18.03.04.02.08.06.13.12l7.37 9.88a4.7 4.7 0 0 1-.03-.47v-9.56h.73v11.4h-.4a.35.35 0 0 1-.3-.16l-7.4-9.9.03.46v9.6h-.71v-11.4zm16.64 10.86c.4 0 .75-.02 1.07-.06a5.75 5.75 0 0 0 2.44-.87v-3.07h-2.19a.21.21 0 0 1-.15-.05.17.17 0 0 1-.06-.13v-.45h3.15v4.05a7.42 7.42 0 0 1-1.87.92 7.56 7.56 0 0 1-2.44.33 5.9 5.9 0 0 1-2.25-.42 4.99 4.99 0 0 1-2.88-3.02 6.83 6.83 0 0 1-.4-2.4c0-.88.14-1.68.4-2.4A5.03 5.03 0 0 1 300 87.2a7.59 7.59 0 0 1 3.57-.33 5.56 5.56 0 0 1 1.91.7c.28.17.54.36.79.58l-.22.36c-.05.08-.11.12-.2.12a.3.3 0 0 1-.13-.04 1.7 1.7 0 0 1-.35-.22 5.15 5.15 0 0 0-3.02-.87c-.74 0-1.41.12-2 .35a4.24 4.24 0 0 0-2.5 2.63 6.28 6.28 0 0 0-.34 2.13c0 .81.11 1.53.34 2.17.23.64.56 1.18.97 1.62.42.45.91.79 1.5 1.02.58.24 1.22.36 1.92.36z" />
    <linearGradient
       id="a"
       x1="121"
       x2="81.94"
       y1="57.66"
       y2="57.66"
       gradientUnits="userSpaceOnUse">
      <stop
         offset="0"
         stop-color="#3caef3"
         id="stop3765" />
      <stop
         offset="1"
         stop-color="#266ce7"
         id="stop3767" />
    </linearGradient>
    <linearGradient
       id="c"
       x1="90.39"
       x2="68.75"
       y1="77.18"
       y2="77.18"
       gradientUnits="userSpaceOnUse">
      <stop
         offset="0"
         stop-color="#3caef3"
         id="stop3770" />
      <stop
         offset="1"
         stop-color="#266ce7"
         id="stop3772" />
    </linearGradient>
    <linearGradient
       id="e"
       x1="101.47"
       x2="57.14"
       y1="76.92"
       y2="76.92"
       gradientUnits="userSpaceOnUse">
      <stop
         offset="0"
         stop-color="#3caef3"
         id="stop3775" />
      <stop
         offset="1"
         stop-color="#266ce7"
         id="stop3777" />
    </linearGradient>
    <linearGradient
       id="g"
       x1="112.56"
       x2="45"
       y1="76.91"
       y2="76.91"
       gradientUnits="userSpaceOnUse">
      <stop
         offset="0"
         stop-color="#3caef3"
         id="stop3780" />
      <stop
         offset="1"
         stop-color="#266ce7"
         id="stop3782" />
    </linearGradient>
  </defs>
  <use
     fill="url(#a)"
     xlink:href="#b"
     transform="translate(-45 -40)"
     id="use3787"
     style="fill:#000000" />
  <use
     fill="url(#c)"
     xlink:href="#d"
     transform="translate(-45 -40)"
     id="use3789"
     style="fill:#000000" />
  <use
     fill="url(#e)"
     xlink:href="#f"
     transform="translate(-45 -40)"
     id="use3791"
     style="fill:#000000" />
  <use
     fill="url(#g)"
     xlink:href="#h"
     transform="translate(-45 -40)"
     id="use3793"
     style="fill:#000000" />
  <g
     transform="translate(-45 -40)"
     id="g3805"
     style="fill:#000000">
    <use
       fill="#fff"
       xlink:href="#i"
       id="use3795"
       style="fill:#000000" />
    <use
       fill="#fff"
       xlink:href="#j"
       id="use3797"
       style="fill:#000000" />
    <use
       fill="#fff"
       xlink:href="#k"
       id="use3799"
       style="fill:#000000" />
    <use
       fill="#fff"
       xlink:href="#l"
       id="use3801"
       style="fill:#000000" />
    <use
       fill="#9b9fb5"
       xlink:href="#m"
       id="use3803"
       style="fill:#000000" />
  </g>
</svg>
