<svg xmlns="http://www.w3.org/2000/svg" width="760" height="330" viewBox="0 0 760 330"><g><g><g opacity=".2"><path fill="#1795f1" d="M645.63 106h52v27h-52z"/></g><g opacity=".2"><path fill="#1795f1" d="M649.63 139h52v27h-52z"/></g><g opacity=".2"><path fill="#1795f1" d="M464.63 0h52v27h-52z"/></g><g opacity=".2"><path fill="#1795f1" d="M501.63 31h52v27h-52z"/></g><g opacity=".2"><path fill="#1795f1" d="M401.63 2h52v27h-52z"/></g><g opacity=".2"><path fill="#1795f1" d="M568.63 62h52v27h-52z"/></g><g opacity=".2"><path fill="#1795f1" d="M505.63 64h52v27h-52z"/></g><g opacity=".2"><path fill="#1795f1" d="M438.63 33h52v27h-52z"/></g><g opacity=".2"><path fill="#1795f1" d="M707.63 180h52v27h-52z"/></g><g opacity=".2"><path fill="#1795f1" d="M607 255h52v27h-52z"/></g><g opacity=".2"><path fill="#1795f1" d="M.63 239h52v27h-52z"/></g><g opacity=".2"><path fill="#1795f1" d="M37.63 270h52v27h-52z"/></g><g opacity=".2"><path fill="#1795f1" d="M288.63 33h52v27h-52z"/></g><g opacity=".2"><path fill="#1795f1" d="M607 294h52v27h-52z"/></g><g opacity=".2"><path fill="#1795f1" d="M41.63 303h52v27h-52z"/></g><g opacity=".2"><path fill="#1795f1" d="M325.63 64h52v27h-52z"/></g><g opacity=".2"><path fill="#1795f1" d="M85.63 97h52v27h-52z"/></g><g opacity=".2"><path fill="#1795f1" d="M122.63 128h52v27h-52z"/></g><g opacity=".2"><path fill="#1795f1" d="M126.63 161h52v27h-52z"/></g><g opacity=".2"><path fill="#1795f1" d="M676 294h52v27h-52z"/></g></g></g></svg>