<svg height="247" viewBox="0 0 265 247" width="265" xmlns="http://www.w3.org/2000/svg"><linearGradient id="a" x1="100%" x2="0%" y1="50%" y2="50%"><stop offset="0" stop-color="#252941"/><stop offset="1" stop-color="#252941"/></linearGradient><g fill="none" fill-rule="evenodd"><g fill="#252941"><path d="M32.89 196.137c0 2.285-.395 4.41-1.184 6.377-.79 1.966-1.9 3.676-3.334 5.13s-3.161 2.591-5.182 3.415c-2.02.824-4.261 1.236-6.723 1.236s-4.707-.412-6.735-1.236c-2.027-.824-3.762-1.963-5.203-3.416s-2.556-3.163-3.345-5.13C.394 200.548 0 198.423 0 196.138s.395-4.41 1.184-6.377c.79-1.966 1.904-3.673 3.345-5.118s3.176-2.582 5.203-3.406c2.028-.824 4.273-1.236 6.735-1.236s4.703.416 6.723 1.247 3.748 1.97 5.182 3.416 2.545 3.152 3.334 5.119c.79 1.966 1.184 4.085 1.184 6.355zm-7.516 0c0-1.562-.203-2.968-.609-4.219-.405-1.25-.988-2.31-1.748-3.177a7.542 7.542 0 0 0-2.792-1.996c-1.1-.462-2.353-.694-3.758-.694-1.42 0-2.683.232-3.791.694a7.522 7.522 0 0 0-2.802 1.996c-.76.867-1.344 1.927-1.75 3.177-.405 1.251-.608 2.657-.608 4.219 0 1.576.203 2.99.609 4.24.405 1.25.988 2.31 1.749 3.178.76.867 1.694 1.529 2.802 1.984s2.371.683 3.79.683c1.406 0 2.658-.227 3.759-.683s2.031-1.117 2.792-1.984c.76-.868 1.343-1.927 1.748-3.178.406-1.25.609-2.664.609-4.24zm14.902-15.79c.319 0 .587.014.804.043.217.03.413.084.587.163.173.08.34.192.5.336.159.145.34.34.542.586l15.033 18.978a39.921 39.921 0 0 1-.13-1.768 31.989 31.989 0 0 1-.043-1.615v-16.723h6.473v31.601H60.22c-.565 0-1.043-.086-1.434-.26s-.768-.491-1.13-.954l-14.924-18.827c.044.55.08 1.089.109 1.616.029.528.043 1.023.043 1.486v16.94H36.41v-31.602zm60.35 0v5.813h-8.907v25.788h-7.343V186.16h-8.907v-5.813zm30.674 31.601h-7.386v-13.36h-12.861v13.36h-7.386v-31.601h7.386v13.209h12.86v-13.209h7.387zm25.59-31.601v5.64H143.9v7.374h9.95v5.422h-9.95v7.526h12.99v5.64h-20.377v-31.602zm27.83 17.58c.289.561.566 1.144.833 1.749s.522 1.224.767 1.858c.245-.649.504-1.28.778-1.892.274-.612.555-1.205.843-1.78l8.085-16.287c.144-.28.292-.498.443-.652.151-.155.32-.27.508-.343.187-.074.4-.118.637-.133.238-.015.516-.022.833-.022h5.577v32.24h-6.442v-18.543c0-.9.043-1.874.13-2.921l-8.344 16.573c-.26.517-.609.908-1.049 1.173-.44.266-.94.398-1.502.398h-.994a2.848 2.848 0 0 1-1.503-.398c-.44-.265-.789-.656-1.048-1.173l-8.387-16.595a28.259 28.259 0 0 1 .173 2.943v18.543h-6.442v-32.24h5.577c.317 0 .595.007.832.022.238.015.45.059.638.133s.357.188.508.343c.151.154.3.372.443.652zm53.803 14.738h-5.663c-.634 0-1.156-.152-1.567-.454a2.338 2.338 0 0 1-.854-1.162l-1.86-5.62h-11.975l-1.859 5.62c-.144.413-.425.786-.843 1.118-.417.332-.93.498-1.534.498h-5.707l12.192-32.24h7.479zm-20.232-12.326h8.603l-2.897-8.828-.659-1.98c-.252-.76-.5-1.583-.746-2.468-.23.9-.468 1.733-.713 2.5a36.682 36.682 0 0 1-.692 1.992zm30.09 1.55v10.776h-7.307v-32.24h11.111c2.22 0 4.125.269 5.718.807 1.592.539 2.903 1.28 3.934 2.224a8.674 8.674 0 0 1 2.28 3.341c.49 1.284.735 2.67.735 4.16 0 1.608-.252 3.083-.756 4.426a8.89 8.89 0 0 1-2.313 3.452c-1.038.959-2.353 1.707-3.945 2.246-1.593.538-3.477.807-5.653.807zm0-5.643h3.804c1.902 0 3.271-.465 4.107-1.394.836-.93 1.254-2.228 1.254-3.895 0-.737-.108-1.408-.324-2.013a4.109 4.109 0 0 0-.984-1.56c-.44-.435-.994-.771-1.664-1.007-.67-.236-1.467-.354-2.389-.354h-3.804z" opacity=".9"/><path d="M2.57 245.894H1.319v-17.2h1.253zm6.176-17.2a.69.69 0 0 1 .268.043.571.571 0 0 1 .207.188l11.136 14.903a7.087 7.087 0 0 1-.037-.705v-14.429h1.094v17.2h-.595a.525.525 0 0 1-.45-.243L9.184 230.724c.024.243.037.474.037.693v14.477H8.139v-17.2zm29.008 0v1.058H31.71v16.142h-1.24v-16.142h-6.078v-1.058zm13.287 0v1.034h-9.057v6.952h7.538v1.01h-7.538v7.17h9.057v1.034H40.732v-17.2zm5.666 9.42v7.78h-1.24v-17.2h4.388c1.986 0 3.47.383 4.45 1.15.98.765 1.47 1.89 1.47 3.372a4.62 4.62 0 0 1-.34 1.8 4.219 4.219 0 0 1-.978 1.427 5.22 5.22 0 0 1-1.538 1.01c-.6.263-1.277.435-2.03.516.194.121.368.283.522.486l5.921 7.439H66.25a.714.714 0 0 1-.334-.073.877.877 0 0 1-.274-.243l-5.507-6.977a1.221 1.221 0 0 0-.444-.377c-.158-.073-.403-.11-.735-.11zm0-.923h2.99c.762 0 1.445-.091 2.049-.274.604-.182 1.114-.443 1.532-.784.417-.34.735-.75.954-1.227s.328-1.017.328-1.617c0-1.224-.401-2.131-1.203-2.723-.803-.591-1.97-.887-3.502-.887h-3.148zm14.345-8.497a.69.69 0 0 1 .268.043.571.571 0 0 1 .206.188l11.136 14.903a7.087 7.087 0 0 1-.036-.705v-14.429h1.094v17.2h-.596a.525.525 0 0 1-.45-.243L71.49 230.724c.024.243.036.474.036.693v14.477h-1.082v-17.2zm28.083 0v1.034h-9.057v6.952h7.538v1.01h-7.538v7.17h9.057v1.034h-10.31v-17.2zm15.294 0v1.058h-6.042v16.142h-1.24v-16.142h-6.079v-1.058zm15.938 12.192c.122.227.227.47.316.73.049-.13.1-.258.152-.384a3.5 3.5 0 0 1 .176-.358l6.76-11.949c.065-.105.13-.17.194-.194a.786.786 0 0 1 .268-.037h.863v17.2h-1.094v-14.66c0-.21.012-.433.036-.668l-6.771 12.022c-.114.21-.276.316-.487.316h-.194c-.203 0-.365-.106-.486-.316l-6.954-12.034c.024.235.036.462.036.68v14.66H122.1v-17.2h.851a.85.85 0 0 1 .274.037c.069.024.135.09.2.194zm26.782 5.008h-.96a.422.422 0 0 1-.28-.091.605.605 0 0 1-.17-.237l-2.03-4.996h-8.45l-2.017 4.996a.522.522 0 0 1-.17.23.453.453 0 0 1-.292.098h-.949l7.04-17.2h1.24zm-11.513-6.248h7.708l-3.513-8.69c-.057-.138-.114-.294-.17-.469s-.114-.358-.17-.553c-.057.195-.114.38-.17.553s-.114.335-.171.48zm15.841-1.531v7.779h-1.24v-17.2h4.389c1.986 0 3.469.383 4.45 1.15.98.765 1.47 1.89 1.47 3.372a4.62 4.62 0 0 1-.34 1.8 4.219 4.219 0 0 1-.978 1.427 5.22 5.22 0 0 1-1.538 1.01c-.6.263-1.277.435-2.03.516.194.121.368.283.522.486l5.92 7.439h-1.081a.714.714 0 0 1-.335-.073.877.877 0 0 1-.273-.243l-5.507-6.977a1.221 1.221 0 0 0-.444-.377c-.158-.073-.403-.11-.736-.11zm0-.924h2.991c.762 0 1.445-.091 2.048-.274.604-.182 1.115-.443 1.532-.784s.736-.75.955-1.227a3.841 3.841 0 0 0 .328-1.617c0-1.224-.401-2.131-1.204-2.723-.802-.591-1.97-.887-3.501-.887h-3.149zm15.343-.56h1.02a3.9 3.9 0 0 0 .402-.017 1.198 1.198 0 0 0 .571-.213c.082-.057.167-.13.256-.219l6.942-7.135c.13-.13.249-.22.358-.274s.245-.079.407-.079h1.01l-7.514 7.719c-.154.162-.29.288-.407.377s-.25.162-.395.219c.17.048.322.123.456.224.134.102.27.233.407.395l7.927 8.266h-1.01c-.21 0-.36-.03-.45-.091a1.98 1.98 0 0 1-.279-.237l-7.282-7.44a7.408 7.408 0 0 0-.243-.23 1.063 1.063 0 0 0-.584-.261 3.27 3.27 0 0 0-.486-.03h-1.106v8.289h-1.24V228.67h1.24zm24.752-7.937v1.034h-9.057v6.952h7.537v1.01h-7.537v7.17h9.057v1.034h-10.31v-17.2zm15.293 0v1.058h-6.042v16.142h-1.24v-16.142h-6.078v-1.058zm4.681 17.2h-1.252v-17.2h1.252zm6.176-17.2c.113 0 .202.015.267.043a.571.571 0 0 1 .207.188l11.136 14.903a7.087 7.087 0 0 1-.036-.705v-14.429h1.094v17.2h-.596a.525.525 0 0 1-.45-.243l-11.184-14.927c.024.243.036.474.036.693v14.477h-1.082v-17.2zm25.165 16.386c.592 0 1.13-.03 1.617-.092a8.495 8.495 0 0 0 2.547-.717c.377-.174.756-.37 1.137-.59v-4.63h-3.307a.317.317 0 0 1-.225-.085.26.26 0 0 1-.091-.195v-.68h4.753v6.113c-.43.3-.875.568-1.337.803a8.908 8.908 0 0 1-1.483.59c-.527.157-1.094.279-1.702.364s-1.273.127-1.994.127c-1.24 0-2.373-.208-3.398-.626a7.54 7.54 0 0 1-2.638-1.774c-.733-.766-1.303-1.692-1.708-2.778s-.608-2.293-.608-3.622c0-1.329.203-2.534.608-3.616s.98-2.006 1.726-2.771c.746-.766 1.652-1.358 2.717-1.775 1.066-.417 2.26-.626 3.58-.626.657 0 1.263.045 1.818.134a8.42 8.42 0 0 1 1.55.395 7.28 7.28 0 0 1 1.338.644c.413.255.81.549 1.191.881l-.328.535c-.073.122-.174.182-.304.182a.456.456 0 0 1-.207-.048c-.121-.049-.298-.162-.529-.34-.23-.179-.543-.365-.936-.56s-.885-.368-1.477-.522-1.309-.231-2.152-.231c-1.118 0-2.127.178-3.027.534-.9.357-1.667.868-2.304 1.532s-1.126 1.475-1.47 2.431c-.345.956-.517 2.03-.517 3.221 0 1.216.174 2.306.522 3.27s.837 1.78 1.465 2.45 1.382 1.18 2.262 1.537 1.85.535 2.911.535z"/></g><g fill="url(#a)" transform="translate(54)"><path d="M127.268 44.33c8.093 0 14.632-6.467 14.632-14.387 0-7.921-6.54-14.387-14.632-14.387s-14.633 6.466-14.633 14.387c0 7.92 6.54 14.387 14.633 14.387zm19.619 10.183c-2.861 2.344-6.05 4.446-9.646 5.335L86.72 72.78c-2.86.727-5.967-.404-7.847-2.586-1.88-2.183-2.452-5.416-1.226-8.002l21.744-46.636c1.554-3.314 4.17-6.062 7.03-8.406 13.243-10.911 32.944-9.133 44.143 3.96 11.2 13.094 9.565 32.492-3.678 43.403z"/><path d="M70.727 78.347C77.867 87.084 95 81.117 95 81.117 92.95 91.92 83.77 100 72.705 100 60.164 100 50 89.528 50 76.5c0-12.78 9.836-23.17 22.131-23.5 0 0-9.751 15.135-1.404 25.347z"/><path d="M71 112.88c18.759 0 34.01-15.018 35.07-33.85L117 76.106V77c0 25.976-20.553 47-46 47-25.365 0-46-21.024-46-47s20.553-47 46-47c3.67 0 7.259.406 10.684 1.299l-4.649 10.309A37.072 37.072 0 0 0 71 41.12c-19.411 0-35.152 16.073-35.152 35.88S51.588 112.88 71 112.88z"/><path d="M141 77c0 39.755-31.58 72-70.54 72C31.496 149 0 116.755 0 77S31.58 5 70.46 5c7.3 0 14.353 1.143 20.915 3.265L86.29 19.612c-5.004-1.469-10.335-2.204-15.83-2.204-32.237 0-58.402 26.694-58.402 59.674s26.165 59.673 58.401 59.673c32.236 0 58.401-26.694 58.401-59.673 0-1.388-.082-2.694-.164-4.082l11.894-3.184c.328 2.368.41 4.735.41 7.184z"/></g></g></svg>