<svg xmlns="http://www.w3.org/2000/svg" viewBox="0 0 265 72" width="265" height="72">
	<defs>
		<linearGradient id="grd1" gradientUnits="userSpaceOnUse"  x1="76" y1="17.66" x2="36.94" y2="17.66">
			<stop offset="0" stop-color="#3caef3"  />
			<stop offset="1" stop-color="#266ce7"  />
		</linearGradient>
		<linearGradient id="grd2" gradientUnits="userSpaceOnUse"  x1="45.39" y1="37.18" x2="23.75" y2="37.18">
			<stop offset="0" stop-color="#3caef3"  />
			<stop offset="1" stop-color="#266ce7"  />
		</linearGradient>
		<linearGradient id="grd3" gradientUnits="userSpaceOnUse"  x1="56.47" y1="36.92" x2="12.14" y2="36.92">
			<stop offset="0" stop-color="#3caef3"  />
			<stop offset="1" stop-color="#266ce7"  />
		</linearGradient>
		<linearGradient id="grd4" gradientUnits="userSpaceOnUse"  x1="67.56" y1="36.91" x2="0" y2="36.91">
			<stop offset="0" stop-color="#3caef3"  />
			<stop offset="1" stop-color="#266ce7"  />
		</linearGradient>
	</defs>
	<style>
		tspan { white-space:pre }
		.shp0 { fill: url(#grd1) } 
		.shp1 { fill: url(#grd2) } 
		.shp2 { fill: url(#grd3) } 
		.shp3 { fill: url(#grd4) } 
		.shp4 { fill: #ffffff } 
	</style>
	<path id="b" class="shp0" d="M54.12,14.49c0.01,-1.86 0.76,-3.64 2.09,-4.94c1.32,-1.31 3.11,-2.03 4.97,-2.02c3.9,0 7.05,3.13 7.05,6.96c-0.03,3.87 -3.18,6.98 -7.05,6.96c-1.86,0.01 -3.65,-0.71 -4.97,-2.02c-1.32,-1.31 -2.08,-3.08 -2.09,-4.94zM72.42,5.38c-5.38,-6.35 -14.87,-7.21 -21.3,-1.92c-1.41,1.09 -2.57,2.48 -3.38,4.07l-10.49,22.57c-0.56,1.3 -0.33,2.8 0.6,3.87c0.9,1.06 2.4,1.6 3.78,1.25l24.36,-6.26c1.72,-0.51 3.31,-1.39 4.65,-2.58c3.06,-2.53 4.97,-6.18 5.3,-10.13c0.33,-3.95 -0.94,-7.87 -3.53,-10.87z" />
	<path id="d" class="shp1" d="M33.72,38.07c3.43,4.21 11.67,1.33 11.67,1.33c-0.91,5.22 -5.42,9.05 -10.72,9.11c-6.03,0 -10.92,-5.05 -10.92,-11.33c0,-6.17 4.73,-11.18 10.64,-11.34c0,0 -4.69,7.3 -0.67,12.23z" />
	<path id="f" class="shp2" d="M34.3,54.22c9.05,0 16.4,-7.24 16.9,-16.33l5.27,-1.4v0.42c0,12.53 -9.9,22.68 -22.16,22.68c-12.23,0 -22.17,-10.15 -22.17,-22.68c0,-12.53 9.9,-22.67 22.17,-22.67c1.77,0 3.5,0.2 5.15,0.63l-2.24,4.97c-0.95,-0.16 -1.93,-0.24 -2.91,-0.24c-9.36,0 -16.94,7.76 -16.94,17.31c0,9.56 7.58,17.31 16.94,17.31z" />
	<path id="h" class="shp3" d="M67.56,36.91c0,19.21 -15.13,34.8 -33.8,34.8c-18.67,0 -33.76,-15.59 -33.76,-34.8c0,-19.21 15.13,-34.8 33.76,-34.8c3.5,0 6.88,0.55 10.02,1.58l-2.44,5.48c-2.46,-0.72 -5.02,-1.07 -7.58,-1.06c-15.46,-0.01 -27.98,12.89 -27.98,28.84c0,15.95 12.53,28.84 27.98,28.84c15.44,0 27.98,-12.9 27.98,-28.84c0,-0.67 -0.04,-1.3 -0.08,-1.97l5.7,-1.54c0.16,1.14 0.2,2.29 0.2,3.47z" />
	<g id="g51">
		<path id="i" class="shp4" d="M111.72,28.68c0,1.51 -0.26,2.92 -0.78,4.22c-1.02,2.58 -3.05,4.62 -5.62,5.66c-1.34,0.54 -2.82,0.81 -4.45,0.81c-1.62,0 -3.1,-0.27 -4.44,-0.82c-2.58,-1.03 -4.62,-3.08 -5.65,-5.66c-0.52,-1.3 -0.78,-2.7 -0.78,-4.21c0,-1.51 0.26,-2.92 0.78,-4.22c1.02,-2.58 3.07,-4.62 5.65,-5.64c1.34,-0.55 2.82,-0.82 4.44,-0.82c1.63,0 3.11,0.28 4.44,0.83c2.57,1.03 4.6,3.08 5.62,5.65c0.53,1.3 0.79,2.7 0.79,4.2zM106.76,28.68c0,-1.03 -0.14,-1.97 -0.4,-2.8c-0.24,-0.77 -0.63,-1.49 -1.16,-2.1c-0.5,-0.58 -1.13,-1.03 -1.84,-1.32c-0.79,-0.32 -1.64,-0.48 -2.49,-0.46c-0.93,0 -1.77,0.16 -2.5,0.46c-0.73,0.31 -1.35,0.75 -1.85,1.32c-0.5,0.58 -0.89,1.28 -1.15,2.1c-0.27,0.83 -0.4,1.77 -0.4,2.8c0,1.04 0.13,1.98 0.4,2.8c0.26,0.83 0.65,1.53 1.15,2.1c0.5,0.58 1.14,1.03 1.85,1.32c0.73,0.3 1.57,0.45 2.5,0.45c0.93,0 1.76,-0.15 2.49,-0.45c0.72,-0.3 1.34,-0.74 1.84,-1.31c0.5,-0.58 0.89,-1.28 1.15,-2.1c0.27,-0.83 0.4,-1.77 0.4,-2.81zM116.6,18.23c0.2,0 0.38,0 0.53,0.03c0.14,0.02 0.27,0.05 0.39,0.1c0.11,0.06 0.22,0.13 0.33,0.23c0.1,0.1 0.22,0.22 0.35,0.39l9.93,12.56c-0.07,-0.74 -0.1,-1.49 -0.11,-2.24v-11.07h4.27v20.91h-2.52c-0.38,0 -0.7,-0.05 -0.95,-0.17c-0.26,-0.11 -0.5,-0.32 -0.75,-0.63l-9.85,-12.46c0.05,0.68 0.08,1.37 0.1,2.05v11.21h-4.28v-20.91zM156.45,18.23v3.85h-5.88v17.06h-4.85v-17.06h-5.88v-3.85zM176.71,39.14h-4.88v-8.84h-8.5v8.84h-4.87v-20.91h4.88v8.74h8.49v-8.74h4.88zM193.61,18.23v3.73h-8.58v4.88h6.57v3.59h-6.57v4.98h8.58v3.73h-13.46v-20.91z" />
		<path id="j" class="shp4" d="M211.98,29.86c0.4,0.77 0.76,1.57 1.06,2.39c0.31,-0.83 0.67,-1.64 1.07,-2.43l5.34,-10.78c0.1,-0.18 0.2,-0.33 0.3,-0.43c0.1,-0.1 0.2,-0.18 0.33,-0.23c0.12,-0.05 0.26,-0.08 0.42,-0.09c0.18,-0.01 0.37,-0.01 0.55,-0.01h3.68v21.34h-4.25v-12.28c0,-0.6 0.03,-1.24 0.08,-1.93l-5.5,10.97c-0.18,0.34 -0.4,0.6 -0.7,0.78c-0.29,0.17 -0.62,0.26 -0.99,0.26h-0.66c-0.37,0 -0.7,-0.09 -0.99,-0.26c-0.3,-0.19 -0.55,-0.46 -0.7,-0.78l-5.52,-10.98c0.07,0.64 0.11,1.29 0.11,1.94v12.28h-4.25v-21.34h3.68l0.55,0.01c0.16,0.01 0.3,0.04 0.42,0.1c0.13,0.04 0.24,0.12 0.34,0.22c0.1,0.1 0.2,0.25 0.3,0.43z" />
		<path id="k" class="shp4" d="M247.51,39.62h-3.74c-0.42,0 -0.76,-0.1 -1.03,-0.3c-0.27,-0.2 -0.46,-0.46 -0.57,-0.77l-1.23,-3.72h-7.9l-1.23,3.72c-0.24,0.65 -0.87,1.08 -1.57,1.07h-3.77l8.05,-21.34h4.94zM234.15,31.46h5.68l-1.91,-5.84l-0.44,-1.31c-0.16,-0.5 -0.33,-1.05 -0.49,-1.64c-0.26,1.01 -0.57,2 -0.93,2.98z" />
		<path id="l" class="shp4" d="M254.02,32.48v7.14h-4.82v-21.34h7.34c1.46,0 2.72,0.18 3.77,0.53c0.96,0.31 1.85,0.81 2.6,1.48c0.67,0.61 1.18,1.36 1.5,2.2c0.67,1.84 0.66,3.85 -0.01,5.68c-0.32,0.88 -0.84,1.66 -1.52,2.3c-0.76,0.67 -1.65,1.18 -2.61,1.48c-1.05,0.36 -2.3,0.53 -3.73,0.53zM254.02,28.75h2.52c1.25,0 2.16,-0.3 2.71,-0.92c0.55,-0.62 0.83,-1.48 0.83,-2.58c0,-0.49 -0.07,-0.93 -0.22,-1.33c-0.28,-0.81 -0.93,-1.44 -1.75,-1.7c-0.51,-0.17 -1.04,-0.25 -1.57,-0.24h-2.52z" />
	</g>
	<path id="THEME OPTIONS " class="shp4" d="M94.1 58L94.91 58L94.91 47.54L98.94 47.54L98.94 46.8L90.06 46.8L90.06 47.54L94.1 47.54L94.1 58ZM109.26 46.8L109.26 51.95L101.78 51.95L101.78 46.8L100.96 46.8L100.96 58L101.78 58L101.78 52.67L109.26 52.67L109.26 58L110.08 58L110.08 46.8L109.26 46.8ZM114.8 57.26L114.8 52.67L120.77 52.67L120.77 51.95L114.8 51.95L114.8 47.54L121.47 47.54L121.47 46.8L113.98 46.8L113.98 58L121.71 58L121.71 57.26L114.8 57.26ZM136.08 58L136.06 46.8L135.39 46.8L130.38 55.46L125.38 46.8L124.69 46.8L124.69 58L125.49 58L125.49 48.45L130.18 56.51L130.58 56.51L135.26 48.42L135.28 58L136.08 58ZM140.8 57.26L140.8 52.67L146.77 52.67L146.77 51.95L140.8 51.95L140.8 47.54L147.47 47.54L147.47 46.8L139.98 46.8L139.98 58L147.71 58L147.71 57.26L140.8 57.26ZM159.55 58.08C162.88 58.08 165.38 55.66 165.38 52.4C165.38 49.14 162.88 46.72 159.55 46.72C156.21 46.72 153.73 49.15 153.73 52.4C153.73 55.65 156.21 58.08 159.55 58.08ZM159.55 57.33C156.69 57.33 154.54 55.23 154.54 52.4C154.54 49.57 156.69 47.47 159.55 47.47C162.4 47.47 164.54 49.57 164.54 52.4C164.54 55.23 162.4 57.33 159.55 57.33ZM172.22 46.8L168.21 46.8L168.21 58L169.02 58L169.02 54.34L172.22 54.34C175.04 54.34 176.74 52.93 176.74 50.58C176.74 48.21 175.04 46.8 172.22 46.8ZM172.22 53.6L169.02 53.6L169.02 47.54L172.22 47.54C174.62 47.54 175.9 48.64 175.9 50.58C175.9 52.5 174.62 53.6 172.22 53.6ZM181.25 58L182.06 58L182.06 47.54L186.1 47.54L186.1 46.8L177.22 46.8L177.22 47.54L181.25 47.54L181.25 58ZM188.11 58L188.93 58L188.93 46.8L188.11 46.8L188.11 58ZM197.58 58.08C200.91 58.08 203.41 55.66 203.41 52.4C203.41 49.14 200.91 46.72 197.58 46.72C194.24 46.72 191.76 49.15 191.76 52.4C191.76 55.65 194.24 58.08 197.58 58.08ZM197.58 57.33C194.72 57.33 192.58 55.23 192.58 52.4C192.58 49.57 194.72 47.47 197.58 47.47C200.43 47.47 202.58 49.57 202.58 52.4C202.58 55.23 200.43 57.33 197.58 57.33ZM214.54 46.8L214.54 56.53L206.93 46.8L206.24 46.8L206.24 58L207.06 58L207.06 48.27L214.69 58L215.36 58L215.36 46.8L214.54 46.8ZM222.21 58.08C224.98 58.08 226.24 56.7 226.24 55.12C226.24 51.06 219.25 53.04 219.25 49.68C219.25 48.45 220.22 47.44 222.4 47.44C223.41 47.44 224.54 47.74 225.47 48.38L225.78 47.73C224.91 47.1 223.63 46.72 222.4 46.72C219.65 46.72 218.43 48.11 218.43 49.7C218.43 53.82 225.42 51.81 225.42 55.17C225.42 56.38 224.43 57.36 222.19 57.36C220.69 57.36 219.26 56.75 218.5 55.95L218.13 56.56C218.94 57.46 220.54 58.08 222.21 58.08Z" />
</svg>